<svg xmlns="http://www.w3.org/2000/svg" viewBox="0 0 470 114"><title>grid_elements</title><path d="M18.07,116H458.72V-2H18.07ZM434.78,5.64l3,3-3,3-3-3Zm0,97.92,3,3-3,3-3-3Zm-33-65.28,3,3-3,3-3-3Zm0,32.64,3,3-3,3-3-3Zm-33-65.28,3,3-3,3-3-3Zm0,97.92,3,3-3,3-3-3ZM335.72,38.19l3,3-3,3-3-3Zm0,32.64,3,3-3,3-3-3ZM302.65,5.64l3,3-3,3-3-3Zm0,97.92,3,3-3,3-3-3Zm-33-65.28,3,3-3,3-3-3Zm0,32.64,3,3-3,3-3-3Zm-33-65.28,3,3-3,3-3-3Zm0,97.92,3,3-3,3-3-3ZM203.7,38.19l3,3-3,3-3-3Zm0,32.64,3,3-3,3-3-3ZM170.64,5.64l3,3-3,3-3-3Zm0,97.92,3,3-3,3-3-3Zm-33-65.28,3,3-3,3-3-3Zm0,32.64,3,3-3,3-3-3Zm-33-65.28,3,3-3,3-3-3Zm0,97.92,3,3-3,3-3-3ZM71.57,38.19l3,3-3,3-3-3Zm0,32.64,3,3-3,3-3-3ZM38.51,5.64l3,3-3,3-3-3Zm0,97.92,3,3-3,3-3-3Z" style="fill:none"/><rect x="36.41" y="6.51" width="4.21" height="4.21" transform="translate(5.19 29.75) rotate(-45)" style="fill:#231f20"/><rect x="102.53" y="6.51" width="4.21" height="4.21" transform="translate(24.56 76.51) rotate(-45)" style="fill:#231f20"/><rect x="168.54" y="6.51" width="4.21" height="4.21" transform="translate(43.89 123.18) rotate(-45)" style="fill:#231f20"/><rect x="234.54" y="6.51" width="4.21" height="4.21" transform="translate(63.22 169.86) rotate(-45)" style="fill:#231f20"/><rect x="300.55" y="6.51" width="4.21" height="4.21" transform="translate(82.55 216.53) rotate(-45)" style="fill:#231f20"/><rect x="366.67" y="6.51" width="4.21" height="4.21" transform="translate(101.92 263.28) rotate(-45)" style="fill:#231f20"/><rect x="432.68" y="6.51" width="4.21" height="4.21" transform="translate(121.25 309.96) rotate(-45)" style="fill:#231f20"/><rect x="69.47" y="39.06" width="4.21" height="4.21" transform="translate(-8.15 62.67) rotate(-45)" style="fill:#231f20"/><rect x="135.53" y="39.15" width="4.21" height="4.21" transform="translate(11.14 109.41) rotate(-45)" style="fill:#231f20"/><rect x="201.6" y="39.06" width="4.21" height="4.21" transform="translate(30.56 156.1) rotate(-45)" style="fill:#231f20"/><rect x="267.55" y="39.15" width="4.21" height="4.21" transform="translate(49.81 202.75) rotate(-45)" style="fill:#231f20"/><rect x="333.61" y="39.06" width="4.21" height="4.21" transform="translate(69.22 249.45) rotate(-45)" style="fill:#231f20"/><rect x="399.68" y="39.15" width="4.21" height="4.21" transform="translate(88.51 296.19) rotate(-45)" style="fill:#231f20"/><rect x="69.47" y="71.7" width="4.21" height="4.21" transform="translate(-31.22 72.23) rotate(-45)" style="fill:#231f20"/><rect x="135.53" y="71.78" width="4.21" height="4.21" transform="translate(-11.93 118.97) rotate(-45)" style="fill:#231f20"/><rect x="201.6" y="71.7" width="4.21" height="4.21" transform="translate(7.48 165.66) rotate(-45)" style="fill:#231f20"/><rect x="267.55" y="71.78" width="4.21" height="4.21" transform="translate(26.73 212.31) rotate(-45)" style="fill:#231f20"/><rect x="333.61" y="71.7" width="4.21" height="4.21" transform="translate(46.14 259.01) rotate(-45)" style="fill:#231f20"/><rect x="399.68" y="71.78" width="4.21" height="4.21" transform="translate(65.43 305.75) rotate(-45)" style="fill:#231f20"/><rect x="36.41" y="104.42" width="4.21" height="4.21" transform="translate(-64.05 58.43) rotate(-45)" style="fill:#231f20"/><rect x="102.53" y="104.42" width="4.21" height="4.21" transform="translate(-44.68 105.19) rotate(-45)" style="fill:#231f20"/><rect x="168.54" y="104.42" width="4.21" height="4.21" transform="translate(-25.35 151.86) rotate(-45)" style="fill:#231f20"/><rect x="234.54" y="104.42" width="4.21" height="4.21" transform="translate(-6.01 198.54) rotate(-45)" style="fill:#231f20"/><rect x="300.55" y="104.42" width="4.21" height="4.21" transform="translate(13.32 245.21) rotate(-45)" style="fill:#231f20"/><rect x="366.67" y="104.42" width="4.21" height="4.21" transform="translate(32.68 291.96) rotate(-45)" style="fill:#231f20"/><rect x="432.68" y="104.42" width="4.21" height="4.21" transform="translate(52.02 338.64) rotate(-45)" style="fill:#231f20"/></svg>