<svg xmlns="http://www.w3.org/2000/svg" viewBox="0 0 135 667"><title>grid_elements</title><path d="M4,0V659.77H131V0ZM83.75,49.49l3,3-3,3-3-3Zm0,132,3,3-3,3-3-3Zm0,132.13,3,3-3,3-3-3Zm0,132,3,3-3,3-3-3ZM51.11,49.49l3,3-3,3-3-3Zm0,132,3,3-3,3-3-3Zm0,132.13,3,3-3,3-3-3Zm0,132,3,3-3,3-3-3ZM18.47,616.73l-3-3,3-3,3,3Zm0-66-3-3,3-3,3,3Zm0-66.12-3-3,3-3,3,3Zm0-66-3-3,3-3,3,3Zm0-66-3-3,3-3,3,3Zm0-66-3-3,3-3,3,3Zm0-66.12-3-3,3-3,3,3Zm0-66-3-3,3-3,3,3Zm0-66-3-3,3-3,3,3Zm0-66-3-3,3-3,3,3ZM51.11,577.77l3,3-3,3-3-3Zm.09,72-3-3,3-3,3,3Zm0-132.13-3-3,3-3,3,3Zm0-132-3-3,3-3,3,3Zm0-132.13-3-3,3-3,3,3Zm0-132-3-3,3-3,3,3ZM83.75,577.77l3,3-3,3-3-3Zm.09,72-3-3,3-3,3,3Zm0-132.13-3-3,3-3,3,3Zm0-132-3-3,3-3,3,3Zm0-132.13-3-3,3-3,3,3Zm0-132-3-3,3-3,3,3Zm32.55,495.22-3-3,3-3,3,3Zm0-66-3-3,3-3,3,3Zm0-66.12-3-3,3-3,3,3Zm0-66-3-3,3-3,3,3Zm0-66-3-3,3-3,3,3Zm0-66-3-3,3-3,3,3Zm0-66.12-3-3,3-3,3,3Zm0-66-3-3,3-3,3,3Zm0-66-3-3,3-3,3,3Zm0-66-3-3,3-3,3,3Z" style="fill:none"/><rect x="114.28" y="17.36" width="4.21" height="4.21" transform="translate(20.32 88) rotate(-45)" style="fill:#231f20"/><rect x="114.28" y="83.36" width="4.21" height="4.21" transform="translate(-26.35 107.33) rotate(-45)" style="fill:#231f20"/><rect x="114.28" y="149.37" width="4.21" height="4.21" transform="translate(-73.02 126.66) rotate(-45)" style="fill:#231f20"/><rect x="114.28" y="215.38" width="4.21" height="4.21" transform="translate(-119.69 145.99) rotate(-45)" style="fill:#231f20"/><rect x="114.28" y="281.5" width="4.21" height="4.21" transform="translate(-166.45 165.36) rotate(-45)" style="fill:#231f20"/><rect x="114.28" y="347.51" width="4.21" height="4.21" transform="translate(-213.12 184.69) rotate(-45)" style="fill:#231f20"/><rect x="114.28" y="413.51" width="4.21" height="4.21" transform="translate(-259.8 204.03) rotate(-45)" style="fill:#231f20"/><rect x="114.28" y="479.52" width="4.21" height="4.21" transform="translate(-306.47 223.36) rotate(-45)" style="fill:#231f20"/><rect x="114.28" y="545.64" width="4.21" height="4.21" transform="translate(-353.23 242.72) rotate(-45)" style="fill:#231f20"/><rect x="114.28" y="611.65" width="4.21" height="4.21" transform="translate(-399.9 262.06) rotate(-45)" style="fill:#231f20"/><rect x="81.64" y="50.36" width="4.21" height="4.21" transform="translate(-12.57 74.58) rotate(-45)" style="fill:#231f20"/><rect x="81.73" y="116.43" width="4.21" height="4.21" transform="translate(-59.26 94) rotate(-45)" style="fill:#231f20"/><rect x="81.64" y="182.37" width="4.21" height="4.21" transform="translate(-105.92 113.25) rotate(-45)" style="fill:#231f20"/><rect x="81.73" y="248.44" width="4.21" height="4.21" transform="translate(-152.61 132.66) rotate(-45)" style="fill:#231f20"/><rect x="81.64" y="314.5" width="4.21" height="4.21" transform="translate(-199.35 151.95) rotate(-45)" style="fill:#231f20"/><rect x="81.73" y="380.57" width="4.21" height="4.21" transform="translate(-246.04 171.37) rotate(-45)" style="fill:#231f20"/><rect x="81.64" y="446.52" width="4.21" height="4.21" transform="translate(-292.69 190.61) rotate(-45)" style="fill:#231f20"/><rect x="81.73" y="512.58" width="4.21" height="4.21" transform="translate(-339.38 210.03) rotate(-45)" style="fill:#231f20"/><rect x="81.64" y="578.65" width="4.21" height="4.21" transform="translate(-386.12 229.31) rotate(-45)" style="fill:#231f20"/><rect x="81.73" y="644.71" width="4.21" height="4.21" transform="translate(-432.82 248.73) rotate(-45)" style="fill:#231f20"/><rect x="49" y="50.36" width="4.21" height="4.21" transform="translate(-22.13 51.51) rotate(-45)" style="fill:#231f20"/><rect x="49.09" y="116.43" width="4.21" height="4.21" transform="translate(-68.82 70.92) rotate(-45)" style="fill:#231f20"/><rect x="49" y="182.37" width="4.21" height="4.21" transform="translate(-115.48 90.17) rotate(-45)" style="fill:#231f20"/><rect x="49.09" y="248.44" width="4.21" height="4.21" transform="translate(-162.17 109.59) rotate(-45)" style="fill:#231f20"/><rect x="49" y="314.5" width="4.21" height="4.21" transform="translate(-208.91 128.87) rotate(-45)" style="fill:#231f20"/><rect x="49.09" y="380.57" width="4.21" height="4.21" transform="translate(-255.6 148.29) rotate(-45)" style="fill:#231f20"/><rect x="49" y="446.52" width="4.21" height="4.21" transform="translate(-302.25 167.53) rotate(-45)" style="fill:#231f20"/><rect x="49.09" y="512.58" width="4.21" height="4.21" transform="translate(-348.94 186.95) rotate(-45)" style="fill:#231f20"/><rect x="49" y="578.65" width="4.21" height="4.21" transform="translate(-395.68 206.23) rotate(-45)" style="fill:#231f20"/><rect x="49.09" y="644.71" width="4.21" height="4.21" transform="translate(-442.38 225.65) rotate(-45)" style="fill:#231f20"/><rect x="16.37" y="17.36" width="4.21" height="4.21" transform="translate(-8.35 18.76) rotate(-45)" style="fill:#231f20"/><rect x="16.37" y="83.36" width="4.21" height="4.21" transform="translate(-55.03 38.09) rotate(-45)" style="fill:#231f20"/><rect x="16.37" y="149.37" width="4.21" height="4.21" transform="translate(-101.7 57.43) rotate(-45)" style="fill:#231f20"/><rect x="16.37" y="215.38" width="4.21" height="4.21" transform="translate(-148.37 76.76) rotate(-45)" style="fill:#231f20"/><rect x="16.37" y="281.5" width="4.21" height="4.21" transform="translate(-195.13 96.13) rotate(-45)" style="fill:#231f20"/><rect x="16.37" y="347.51" width="4.21" height="4.21" transform="translate(-241.81 115.46) rotate(-45)" style="fill:#231f20"/><rect x="16.37" y="413.51" width="4.21" height="4.21" transform="translate(-288.48 134.8) rotate(-45)" style="fill:#231f20"/><rect x="16.37" y="479.52" width="4.21" height="4.21" transform="translate(-335.15 154.13) rotate(-45)" style="fill:#231f20"/><rect x="16.37" y="545.64" width="4.21" height="4.21" transform="translate(-381.91 173.5) rotate(-45)" style="fill:#231f20"/><rect x="16.37" y="611.65" width="4.21" height="4.21" transform="translate(-428.58 192.83) rotate(-45)" style="fill:#231f20"/></svg>