<svg xmlns="http://www.w3.org/2000/svg" viewBox="0 0 657 161"><title>grid_elements</title><path d="M10.81,161H31.15l1.55-1.55L34.26,161h62.9l1.55-1.55,1.55,1.55h62.9l1.55-1.55,1.55,1.55h63l1.55-1.55,1.55,1.55h62.9l1.55-1.55L298.4,161h62.9l1.55-1.55,1.55,1.55h62.9l1.55-1.55,1.55,1.55h63l1.55-1.55,1.55,1.55h62.9l1.55-1.55,1.55,1.55h62.9l1.55-1.55,1.55,1.55H657V2H10.81ZM627,29.14l3,3-3,3-3-3Zm0,97.92,3,3-3,3-3-3ZM594.05,61.69l3,3-3,3-3-3Zm0,32.64,3,3-3,3-3-3ZM561,29.14l3,3-3,3-3-3Zm0,97.92,3,3-3,3-3-3ZM528,61.77l3,3-3,3-3-3Zm0,32.64,3,3-3,3-3-3ZM495,29.14l3,3-3,3-3-3Zm0,97.92,3,3-3,3-3-3ZM461.92,61.69l3,3-3,3-3-3Zm0,32.64,3,3-3,3-3-3ZM428.86,29.14l3,3-3,3-3-3Zm0,97.92,3,3-3,3-3-3Zm-33-65.28,3,3-3,3-3-3Zm0,32.64,3,3-3,3-3-3Zm-33-65.28,3,3-3,3-3-3Zm0,97.92,3,3-3,3-3-3ZM329.91,61.69l3,3-3,3-3-3Zm0,32.64,3,3-3,3-3-3ZM296.85,29.14l3,3-3,3-3-3Zm0,97.92,3,3-3,3-3-3Zm-33-65.28,3,3-3,3-3-3Zm0,32.64,3,3-3,3-3-3Zm-33-65.28,3,3-3,3-3-3Zm0,97.92,3,3-3,3-3-3ZM197.78,61.69l3,3-3,3-3-3Zm0,32.64,3,3-3,3-3-3ZM164.72,29.14l3,3-3,3-3-3Zm0,97.92,3,3-3,3-3-3Zm-33-65.28,3,3-3,3-3-3Zm0,32.64,3,3-3,3-3-3Zm-33-65.28,3,3-3,3-3-3Zm0,97.92,3,3-3,3-3-3ZM65.77,61.69l3,3-3,3-3-3Zm0,32.64,3,3-3,3-3-3ZM32.7,29.14l3,3-3,3-3-3Zm0,97.92,3,3-3,3-3-3Z" style="fill:none"/><rect x="30.6" y="30.01" width="4.21" height="4.21" transform="translate(-13.13 32.53) rotate(-45)" style="fill:#231f20"/><rect x="96.61" y="30.01" width="4.21" height="4.21" transform="translate(6.2 79.2) rotate(-45)" style="fill:#231f20"/><rect x="162.61" y="30.01" width="4.21" height="4.21" transform="translate(25.54 125.88) rotate(-45)" style="fill:#231f20"/><rect x="228.74" y="30.01" width="4.21" height="4.21" transform="translate(44.9 172.63) rotate(-45)" style="fill:#231f20"/><rect x="294.74" y="30.01" width="4.21" height="4.21" transform="translate(64.23 219.31) rotate(-45)" style="fill:#231f20"/><rect x="360.75" y="30.01" width="4.21" height="4.21" transform="translate(83.57 265.98) rotate(-45)" style="fill:#231f20"/><rect x="426.75" y="30.01" width="4.21" height="4.21" transform="translate(102.9 312.65) rotate(-45)" style="fill:#231f20"/><rect x="492.88" y="30.01" width="4.21" height="4.21" transform="translate(122.27 359.41) rotate(-45)" style="fill:#231f20"/><rect x="558.88" y="30.01" width="4.21" height="4.21" transform="translate(141.6 406.08) rotate(-45)" style="fill:#231f20"/><rect x="624.89" y="30.01" width="4.21" height="4.21" transform="translate(160.93 452.75) rotate(-45)" style="fill:#231f20"/><rect x="63.66" y="62.56" width="4.21" height="4.21" transform="translate(-26.46 65.44) rotate(-45)" style="fill:#231f20"/><rect x="129.61" y="62.65" width="4.21" height="4.21" transform="translate(-7.21 112.1) rotate(-45)" style="fill:#231f20"/><rect x="195.67" y="62.56" width="4.21" height="4.21" transform="translate(12.2 158.79) rotate(-45)" style="fill:#231f20"/><rect x="261.74" y="62.65" width="4.21" height="4.21" transform="translate(31.49 205.53) rotate(-45)" style="fill:#231f20"/><rect x="327.8" y="62.56" width="4.21" height="4.21" transform="translate(50.9 252.22) rotate(-45)" style="fill:#231f20"/><rect x="393.75" y="62.65" width="4.21" height="4.21" transform="translate(70.16 298.88) rotate(-45)" style="fill:#231f20"/><rect x="459.82" y="62.56" width="4.21" height="4.21" transform="translate(89.57 345.57) rotate(-45)" style="fill:#231f20"/><rect x="525.88" y="62.65" width="4.21" height="4.21" transform="translate(108.86 392.31) rotate(-45)" style="fill:#231f20"/><rect x="591.95" y="62.56" width="4.21" height="4.21" transform="translate(128.27 439) rotate(-45)" style="fill:#231f20"/><rect x="63.66" y="95.2" width="4.21" height="4.21" transform="translate(-49.54 75) rotate(-45)" style="fill:#231f20"/><rect x="129.61" y="95.28" width="4.21" height="4.21" transform="translate(-30.29 121.66) rotate(-45)" style="fill:#231f20"/><rect x="195.67" y="95.2" width="4.21" height="4.21" transform="translate(-10.88 168.35) rotate(-45)" style="fill:#231f20"/><rect x="261.74" y="95.28" width="4.21" height="4.21" transform="translate(8.41 215.09) rotate(-45)" style="fill:#231f20"/><rect x="327.8" y="95.2" width="4.21" height="4.21" transform="translate(27.82 261.78) rotate(-45)" style="fill:#231f20"/><rect x="393.75" y="95.28" width="4.21" height="4.21" transform="translate(47.08 308.44) rotate(-45)" style="fill:#231f20"/><rect x="459.82" y="95.2" width="4.21" height="4.21" transform="translate(66.49 355.13) rotate(-45)" style="fill:#231f20"/><rect x="525.88" y="95.28" width="4.21" height="4.21" transform="translate(85.78 401.87) rotate(-45)" style="fill:#231f20"/><rect x="591.95" y="95.2" width="4.21" height="4.21" transform="translate(105.19 448.56) rotate(-45)" style="fill:#231f20"/><rect x="30.6" y="127.92" width="4.21" height="4.21" transform="translate(-82.37 61.21) rotate(-45)" style="fill:#231f20"/><rect x="96.61" y="127.92" width="4.21" height="4.21" transform="translate(-63.03 107.88) rotate(-45)" style="fill:#231f20"/><rect x="162.61" y="127.92" width="4.21" height="4.21" transform="translate(-43.7 154.56) rotate(-45)" style="fill:#231f20"/><rect x="228.74" y="127.92" width="4.21" height="4.21" transform="translate(-24.33 201.31) rotate(-45)" style="fill:#231f20"/><rect x="294.74" y="127.92" width="4.21" height="4.21" transform="translate(-5 247.99) rotate(-45)" style="fill:#231f20"/><rect x="360.75" y="127.92" width="4.21" height="4.21" transform="translate(14.33 294.66) rotate(-45)" style="fill:#231f20"/><rect x="426.75" y="127.92" width="4.21" height="4.21" transform="translate(33.67 341.33) rotate(-45)" style="fill:#231f20"/><rect x="492.88" y="127.92" width="4.21" height="4.21" transform="translate(53.03 388.09) rotate(-45)" style="fill:#231f20"/><rect x="558.88" y="127.92" width="4.21" height="4.21" transform="translate(72.37 434.76) rotate(-45)" style="fill:#231f20"/><rect x="624.89" y="127.92" width="4.21" height="4.21" transform="translate(91.7 481.44) rotate(-45)" style="fill:#231f20"/><polygon points="31.15 161 34.26 161 32.7 159.45 31.15 161" style="fill:#231f20"/><polygon points="97.16 161 100.26 161 98.71 159.45 97.16 161" style="fill:#231f20"/><polygon points="163.16 161 166.27 161 164.72 159.45 163.16 161" style="fill:#231f20"/><polygon points="229.29 161 232.39 161 230.84 159.45 229.29 161" style="fill:#231f20"/><polygon points="295.29 161 298.4 161 296.85 159.45 295.29 161" style="fill:#231f20"/><polygon points="361.3 161 364.41 161 362.85 159.45 361.3 161" style="fill:#231f20"/><polygon points="427.31 161 430.41 161 428.86 159.45 427.31 161" style="fill:#231f20"/><polygon points="493.43 161 496.54 161 494.98 159.45 493.43 161" style="fill:#231f20"/><polygon points="559.44 161 562.54 161 560.99 159.45 559.44 161" style="fill:#231f20"/><polygon points="625.44 161 628.55 161 627 159.45 625.44 161" style="fill:#231f20"/></svg>