<svg xmlns="http://www.w3.org/2000/svg" viewBox="0 0 765 164"><title>grid_elements</title><path d="M0,148H765V15.39H0ZM746.13,64.55l3,3-3,3-3-3Zm0,32.4,3,3-3,3-3-3ZM713.06,31.83l3,3-3,3-3-3Zm0,97.67,3,3-3,3-3-3ZM680,64.55l3,3-3,3-3-3Zm0,32.4,3,3-3,3-3-3Zm-33-65,3,3-3,3-3-3Zm0,97.67,3,3-3,3-3-3Zm-33-65,3,3-3,3-3-3Zm0,32.4,3,3-3,3-3-3ZM581.05,31.83l3,3-3,3-3-3Zm0,97.67,3,3-3,3-3-3ZM548,64.55l3,3-3,3-3-3Zm0,32.4,3,3-3,3-3-3Zm-33-65,3,3-3,3-3-3Zm0,97.67,3,3-3,3-3-3Zm-33-65,3,3-3,3-3-3Zm0,32.4,3,3-3,3-3-3ZM448.92,31.83l3,3-3,3-3-3Zm0,97.67,3,3-3,3-3-3ZM415.86,64.55l3,3-3,3-3-3Zm0,32.4,3,3-3,3-3-3Zm-33-65,3,3-3,3-3-3Zm0,97.67,3,3-3,3-3-3Zm-33-65,3,3-3,3-3-3Zm0,32.4,3,3-3,3-3-3ZM316.91,31.83l3,3-3,3-3-3Zm0,97.67,3,3-3,3-3-3ZM283.85,64.55l3,3-3,3-3-3Zm0,32.4,3,3-3,3-3-3Zm-33-65,3,3-3,3-3-3Zm0,97.67,3,3-3,3-3-3Zm-33-65,3,3-3,3-3-3Zm0,32.4,3,3-3,3-3-3ZM184.78,31.83l3,3-3,3-3-3Zm0,97.67,3,3-3,3-3-3ZM151.72,64.55l3,3-3,3-3-3Zm0,32.4,3,3-3,3-3-3Zm-33-65,3,3-3,3-3-3Zm0,97.67,3,3-3,3-3-3Zm-33-65,3,3-3,3-3-3Zm0,32.4,3,3-3,3-3-3ZM52.77,31.83l3,3-3,3-3-3Zm0,97.67,3,3-3,3-3-3ZM19.7,64.55l3,3-3,3-3-3Zm0,32.4,3,3-3,3-3-3Z" style="fill:none"/><rect x="50.66" y="32.7" width="4.21" height="4.21" transform="translate(-9.16 47.51) rotate(-45)" style="fill:#231f20"/><rect x="116.61" y="32.78" width="4.21" height="4.21" transform="translate(10.1 94.16) rotate(-45)" style="fill:#231f20"/><rect x="182.67" y="32.7" width="4.21" height="4.21" transform="translate(29.51 140.85) rotate(-45)" style="fill:#231f20"/><rect x="248.74" y="32.78" width="4.21" height="4.21" transform="translate(48.8 187.59) rotate(-45)" style="fill:#231f20"/><rect x="314.8" y="32.7" width="4.21" height="4.21" transform="translate(68.21 234.28) rotate(-45)" style="fill:#231f20"/><rect x="380.75" y="32.78" width="4.21" height="4.21" transform="translate(87.46 280.94) rotate(-45)" style="fill:#231f20"/><rect x="446.82" y="32.7" width="4.21" height="4.21" transform="translate(106.88 327.63) rotate(-45)" style="fill:#231f20"/><rect x="512.88" y="32.78" width="4.21" height="4.21" transform="translate(126.16 374.37) rotate(-45)" style="fill:#231f20"/><rect x="578.95" y="32.7" width="4.21" height="4.21" transform="translate(145.58 421.06) rotate(-45)" style="fill:#231f20"/><rect x="644.89" y="32.78" width="4.21" height="4.21" transform="translate(164.83 467.72) rotate(-45)" style="fill:#231f20"/><rect x="710.96" y="32.7" width="4.21" height="4.21" transform="translate(184.24 514.41) rotate(-45)" style="fill:#231f20"/><rect x="17.6" y="65.42" width="4.21" height="4.21" transform="translate(-41.98 33.71) rotate(-45)" style="fill:#231f20"/><rect x="83.61" y="65.42" width="4.21" height="4.21" transform="translate(-22.65 80.39) rotate(-45)" style="fill:#231f20"/><rect x="149.61" y="65.42" width="4.21" height="4.21" transform="translate(-3.31 127.06) rotate(-45)" style="fill:#231f20"/><rect x="215.74" y="65.42" width="4.21" height="4.21" transform="translate(16.05 173.82) rotate(-45)" style="fill:#231f20"/><rect x="281.74" y="65.42" width="4.21" height="4.21" transform="translate(35.39 220.49) rotate(-45)" style="fill:#231f20"/><rect x="347.75" y="65.42" width="4.21" height="4.21" transform="translate(54.72 267.16) rotate(-45)" style="fill:#231f20"/><rect x="413.75" y="65.42" width="4.21" height="4.21" transform="translate(74.05 313.84) rotate(-45)" style="fill:#231f20"/><rect x="479.88" y="65.42" width="4.21" height="4.21" transform="translate(93.42 360.59) rotate(-45)" style="fill:#231f20"/><rect x="545.88" y="65.42" width="4.21" height="4.21" transform="translate(112.75 407.27) rotate(-45)" style="fill:#231f20"/><rect x="611.89" y="65.42" width="4.21" height="4.21" transform="translate(132.09 453.94) rotate(-45)" style="fill:#231f20"/><rect x="677.9" y="65.42" width="4.21" height="4.21" transform="translate(151.42 500.61) rotate(-45)" style="fill:#231f20"/><rect x="744.02" y="65.42" width="4.21" height="4.21" transform="translate(170.79 547.37) rotate(-45)" style="fill:#231f20"/><rect x="17.6" y="97.82" width="4.21" height="4.21" transform="translate(-64.89 43.2) rotate(-45)" style="fill:#231f20"/><rect x="83.61" y="97.82" width="4.21" height="4.21" transform="translate(-45.55 89.87) rotate(-45)" style="fill:#231f20"/><rect x="149.61" y="97.82" width="4.21" height="4.21" transform="translate(-26.22 136.55) rotate(-45)" style="fill:#231f20"/><rect x="215.74" y="97.82" width="4.21" height="4.21" transform="translate(-6.85 183.3) rotate(-45)" style="fill:#231f20"/><rect x="281.74" y="97.82" width="4.21" height="4.21" transform="translate(12.48 229.98) rotate(-45)" style="fill:#231f20"/><rect x="347.75" y="97.82" width="4.21" height="4.21" transform="translate(31.81 276.65) rotate(-45)" style="fill:#231f20"/><rect x="413.75" y="97.82" width="4.21" height="4.21" transform="translate(51.14 323.32) rotate(-45)" style="fill:#231f20"/><rect x="479.88" y="97.82" width="4.21" height="4.21" transform="translate(70.51 370.08) rotate(-45)" style="fill:#231f20"/><rect x="545.88" y="97.82" width="4.21" height="4.21" transform="translate(89.84 416.75) rotate(-45)" style="fill:#231f20"/><rect x="611.89" y="97.82" width="4.21" height="4.21" transform="translate(109.18 463.43) rotate(-45)" style="fill:#231f20"/><rect x="677.9" y="97.82" width="4.21" height="4.21" transform="translate(128.51 510.1) rotate(-45)" style="fill:#231f20"/><rect x="744.02" y="97.82" width="4.21" height="4.21" transform="translate(147.88 556.86) rotate(-45)" style="fill:#231f20"/><rect x="50.66" y="130.37" width="4.21" height="4.21" transform="translate(-78.22 76.11) rotate(-45)" style="fill:#231f20"/><rect x="116.61" y="130.46" width="4.21" height="4.21" transform="translate(-58.97 122.77) rotate(-45)" style="fill:#231f20"/><rect x="182.67" y="130.37" width="4.21" height="4.21" transform="translate(-39.56 169.46) rotate(-45)" style="fill:#231f20"/><rect x="248.74" y="130.46" width="4.21" height="4.21" transform="translate(-20.27 216.2) rotate(-45)" style="fill:#231f20"/><rect x="314.8" y="130.37" width="4.21" height="4.21" transform="translate(-0.86 262.89) rotate(-45)" style="fill:#231f20"/><rect x="380.75" y="130.46" width="4.21" height="4.21" transform="translate(18.4 309.55) rotate(-45)" style="fill:#231f20"/><rect x="446.82" y="130.37" width="4.21" height="4.21" transform="translate(37.81 356.24) rotate(-45)" style="fill:#231f20"/><rect x="512.88" y="130.46" width="4.21" height="4.21" transform="translate(57.1 402.98) rotate(-45)" style="fill:#231f20"/><rect x="578.95" y="130.37" width="4.21" height="4.21" transform="translate(76.51 449.66) rotate(-45)" style="fill:#231f20"/><rect x="644.89" y="130.46" width="4.21" height="4.21" transform="translate(95.77 496.32) rotate(-45)" style="fill:#231f20"/><rect x="710.96" y="130.37" width="4.21" height="4.21" transform="translate(115.17 543.01) rotate(-45)" style="fill:#231f20"/></svg>