<svg xmlns="http://www.w3.org/2000/svg" viewBox="0 0 626 306"><title>grid_elements</title><path d="M0,306H626V0H0ZM611.3,71.55l3,3-3,3-3-3Zm0,32.4,3,3-3,3-3-3Zm0,97.92,3,3-3,3-3-3Zm0,31.69,3,3-3,3-3-3Zm-33-227.28,3,3-3,3-3-3Zm0,32.64,3,3-3,3-3-3Zm0,97.67,3,3-3,3-3-3Zm0,32.64,3,3-3,3-3-3Zm0,97,3,3-3,3-3-3Zm0,32.64,3,3-3,3-3-3Zm-33-227.28,3,3-3,3-3-3Zm0,32.4,3,3-3,3-3-3Zm0,97.92,3,3-3,3-3-3Zm0,31.69,3,3-3,3-3-3ZM512.35,6.19l3,3-3,3-3-3Zm0,32.64,3,3-3,3-3-3Zm0,97.67,3,3-3,3-3-3Zm0,32.64,3,3-3,3-3-3Zm0,97,3,3-3,3-3-3Zm0,32.64,3,3-3,3-3-3ZM479.28,71.55l3,3-3,3-3-3Zm0,32.4,3,3-3,3-3-3Zm0,97.92,3,3-3,3-3-3Zm0,31.69,3,3-3,3-3-3Zm-33-227.28,3,3-3,3-3-3Zm0,32.64,3,3-3,3-3-3Zm0,97.67,3,3-3,3-3-3Zm0,32.64,3,3-3,3-3-3Zm0,97,3,3-3,3-3-3Zm0,32.64,3,3-3,3-3-3Zm-33-227.28,3,3-3,3-3-3Zm0,32.4,3,3-3,3-3-3Zm0,97.92,3,3-3,3-3-3Zm0,31.69,3,3-3,3-3-3ZM380.22,6.19l3,3-3,3-3-3Zm0,32.64,3,3-3,3-3-3Zm0,97.67,3,3-3,3-3-3Zm0,32.64,3,3-3,3-3-3Zm0,97,3,3-3,3-3-3Zm0,32.64,3,3-3,3-3-3ZM347.15,71.55l3,3-3,3-3-3Zm0,32.4,3,3-3,3-3-3Zm0,97.92,3,3-3,3-3-3Zm0,31.69,3,3-3,3-3-3Zm-33-227.28,3,3-3,3-3-3Zm0,32.64,3,3-3,3-3-3Zm0,97.67,3,3-3,3-3-3Zm0,32.64,3,3-3,3-3-3Zm0,97,3,3-3,3-3-3Zm0,32.64,3,3-3,3-3-3Zm-33-227.28,3,3-3,3-3-3Zm0,32.4,3,3-3,3-3-3Zm0,97.92,3,3-3,3-3-3Zm0,31.69,3,3-3,3-3-3ZM248.2,6.19l3,3-3,3-3-3Zm0,32.64,3,3-3,3-3-3Zm0,97.67,3,3-3,3-3-3Zm0,32.64,3,3-3,3-3-3Zm0,97,3,3-3,3-3-3Zm0,32.64,3,3-3,3-3-3ZM215.14,71.55l3,3-3,3-3-3Zm0,32.4,3,3-3,3-3-3Zm0,97.92,3,3-3,3-3-3Zm0,31.69,3,3-3,3-3-3Zm-33-227.28,3,3-3,3-3-3Zm0,32.64,3,3-3,3-3-3Zm0,97.67,3,3-3,3-3-3Zm0,32.64,3,3-3,3-3-3Zm0,97,3,3-3,3-3-3Zm0,32.64,3,3-3,3-3-3Zm-33-227.28,3,3-3,3-3-3Zm0,32.4,3,3-3,3-3-3Zm0,97.92,3,3-3,3-3-3Zm0,31.69,3,3-3,3-3-3ZM116.07,6.19l3,3-3,3-3-3Zm0,32.64,3,3-3,3-3-3Zm0,97.67,3,3-3,3-3-3Zm0,32.64,3,3-3,3-3-3Zm0,97,3,3-3,3-3-3Zm0,32.64,3,3-3,3-3-3ZM83,71.55l3,3-3,3-3-3Zm0,32.4,3,3-3,3-3-3Zm0,97.92,3,3-3,3-3-3Zm0,31.69,3,3-3,3-3-3ZM50,6.27l3,3-3,3-3-3Zm0,32.64,3,3-3,3-3-3Zm0,97.67,3,3-3,3-3-3Zm0,32.64,3,3-3,3-3-3Zm0,97,3,3-3,3-3-3Zm0,32.64,3,3-3,3-3-3ZM17,71.55l3,3-3,3-3-3Zm0,32.4,3,3-3,3-3-3Zm0,97.92,3,3-3,3-3-3Zm0,31.69,3,3-3,3-3-3Z" style="fill:none"/><rect x="47.9" y="7.15" width="4.21" height="4.21" transform="translate(8.11 38.07) rotate(-45)" style="fill:#231f20"/><rect x="113.97" y="7.06" width="4.21" height="4.21" transform="translate(27.52 84.76) rotate(-45)" style="fill:#231f20"/><rect x="180.03" y="7.15" width="4.21" height="4.21" transform="translate(46.8 131.5) rotate(-45)" style="fill:#231f20"/><rect x="246.1" y="7.06" width="4.21" height="4.21" transform="translate(66.21 178.19) rotate(-45)" style="fill:#231f20"/><rect x="312.05" y="7.15" width="4.21" height="4.21" transform="translate(85.47 224.85) rotate(-45)" style="fill:#231f20"/><rect x="378.11" y="7.06" width="4.21" height="4.21" transform="translate(104.88 271.54) rotate(-45)" style="fill:#231f20"/><rect x="444.18" y="7.15" width="4.21" height="4.21" transform="translate(124.17 318.28) rotate(-45)" style="fill:#231f20"/><rect x="510.24" y="7.06" width="4.21" height="4.21" transform="translate(143.58 364.97) rotate(-45)" style="fill:#231f20"/><rect x="576.19" y="7.15" width="4.21" height="4.21" transform="translate(162.83 411.62) rotate(-45)" style="fill:#231f20"/><rect x="47.9" y="39.78" width="4.21" height="4.21" transform="translate(-14.97 47.63) rotate(-45)" style="fill:#231f20"/><rect x="113.97" y="39.7" width="4.21" height="4.21" transform="translate(4.44 94.32) rotate(-45)" style="fill:#231f20"/><rect x="180.03" y="39.78" width="4.21" height="4.21" transform="translate(23.73 141.06) rotate(-45)" style="fill:#231f20"/><rect x="246.1" y="39.7" width="4.21" height="4.21" transform="translate(43.14 187.75) rotate(-45)" style="fill:#231f20"/><rect x="312.05" y="39.78" width="4.21" height="4.21" transform="translate(62.39 234.41) rotate(-45)" style="fill:#231f20"/><rect x="378.11" y="39.7" width="4.21" height="4.21" transform="translate(81.8 281.1) rotate(-45)" style="fill:#231f20"/><rect x="444.18" y="39.78" width="4.21" height="4.21" transform="translate(101.09 327.84) rotate(-45)" style="fill:#231f20"/><rect x="510.24" y="39.7" width="4.21" height="4.21" transform="translate(120.51 374.53) rotate(-45)" style="fill:#231f20"/><rect x="576.19" y="39.78" width="4.21" height="4.21" transform="translate(139.75 421.18) rotate(-45)" style="fill:#231f20"/><rect x="14.9" y="72.42" width="4.21" height="4.21" transform="translate(-47.72 33.85) rotate(-45)" style="fill:#231f20"/><rect x="80.91" y="72.42" width="4.21" height="4.21" transform="translate(-28.39 80.53) rotate(-45)" style="fill:#231f20"/><rect x="147.03" y="72.42" width="4.21" height="4.21" transform="translate(-9.02 127.29) rotate(-45)" style="fill:#231f20"/><rect x="213.04" y="72.42" width="4.21" height="4.21" transform="translate(10.32 173.96) rotate(-45)" style="fill:#231f20"/><rect x="279.04" y="72.42" width="4.21" height="4.21" transform="translate(29.65 220.63) rotate(-45)" style="fill:#231f20"/><rect x="345.05" y="72.42" width="4.21" height="4.21" transform="translate(48.98 267.3) rotate(-45)" style="fill:#231f20"/><rect x="411.17" y="72.42" width="4.21" height="4.21" transform="translate(68.34 314.06) rotate(-45)" style="fill:#231f20"/><rect x="477.18" y="72.42" width="4.21" height="4.21" transform="translate(87.68 360.73) rotate(-45)" style="fill:#231f20"/><rect x="543.19" y="72.42" width="4.21" height="4.21" transform="translate(107.01 407.4) rotate(-45)" style="fill:#231f20"/><rect x="609.19" y="72.42" width="4.21" height="4.21" transform="translate(126.35 454.09) rotate(-45)" style="fill:#231f20"/><rect x="14.9" y="104.82" width="4.21" height="4.21" transform="translate(-70.63 43.34) rotate(-45)" style="fill:#231f20"/><rect x="80.91" y="104.82" width="4.21" height="4.21" transform="translate(-51.29 90.01) rotate(-45)" style="fill:#231f20"/><rect x="147.03" y="104.82" width="4.21" height="4.21" transform="translate(-31.93 136.77) rotate(-45)" style="fill:#231f20"/><rect x="213.04" y="104.82" width="4.21" height="4.21" transform="translate(-12.59 183.45) rotate(-45)" style="fill:#231f20"/><rect x="279.04" y="104.82" width="4.21" height="4.21" transform="translate(6.74 230.12) rotate(-45)" style="fill:#231f20"/><rect x="345.05" y="104.82" width="4.21" height="4.21" transform="translate(26.07 276.79) rotate(-45)" style="fill:#231f20"/><rect x="411.17" y="104.82" width="4.21" height="4.21" transform="translate(45.43 323.54) rotate(-45)" style="fill:#231f20"/><rect x="477.18" y="104.82" width="4.21" height="4.21" transform="translate(64.77 370.21) rotate(-45)" style="fill:#231f20"/><rect x="543.19" y="104.82" width="4.21" height="4.21" transform="translate(84.1 416.89) rotate(-45)" style="fill:#231f20"/><rect x="609.19" y="104.82" width="4.21" height="4.21" transform="translate(103.44 463.57) rotate(-45)" style="fill:#231f20"/><rect x="47.9" y="137.46" width="4.21" height="4.21" transform="translate(-84.04 76.24) rotate(-45)" style="fill:#231f20"/><rect x="113.97" y="137.37" width="4.21" height="4.21" transform="translate(-64.63 122.93) rotate(-45)" style="fill:#231f20"/><rect x="180.03" y="137.46" width="4.21" height="4.21" transform="translate(-45.34 169.67) rotate(-45)" style="fill:#231f20"/><rect x="246.1" y="137.37" width="4.21" height="4.21" transform="translate(-25.93 216.36) rotate(-45)" style="fill:#231f20"/><rect x="312.05" y="137.46" width="4.21" height="4.21" transform="translate(-6.67 263.01) rotate(-45)" style="fill:#231f20"/><rect x="378.11" y="137.37" width="4.21" height="4.21" transform="translate(12.74 309.71) rotate(-45)" style="fill:#231f20"/><rect x="444.18" y="137.46" width="4.21" height="4.21" transform="translate(32.03 356.45) rotate(-45)" style="fill:#231f20"/><rect x="510.24" y="137.37" width="4.21" height="4.21" transform="translate(51.44 403.14) rotate(-45)" style="fill:#231f20"/><rect x="576.19" y="137.46" width="4.21" height="4.21" transform="translate(70.69 449.79) rotate(-45)" style="fill:#231f20"/><rect x="47.9" y="170.1" width="4.21" height="4.21" transform="translate(-107.12 85.8) rotate(-45)" style="fill:#231f20"/><rect x="113.97" y="170.01" width="4.21" height="4.21" transform="translate(-87.71 132.49) rotate(-45)" style="fill:#231f20"/><rect x="180.03" y="170.1" width="4.21" height="4.21" transform="translate(-68.42 179.23) rotate(-45)" style="fill:#231f20"/><rect x="246.1" y="170.01" width="4.21" height="4.21" transform="translate(-49.01 225.92) rotate(-45)" style="fill:#231f20"/><rect x="312.05" y="170.1" width="4.21" height="4.21" transform="translate(-29.75 272.57) rotate(-45)" style="fill:#231f20"/><rect x="378.11" y="170.01" width="4.21" height="4.21" transform="translate(-10.34 319.27) rotate(-45)" style="fill:#231f20"/><rect x="444.18" y="170.1" width="4.21" height="4.21" transform="translate(8.95 366.01) rotate(-45)" style="fill:#231f20"/><rect x="510.24" y="170.01" width="4.21" height="4.21" transform="translate(28.36 412.7) rotate(-45)" style="fill:#231f20"/><rect x="576.19" y="170.1" width="4.21" height="4.21" transform="translate(47.61 459.35) rotate(-45)" style="fill:#231f20"/><rect x="14.9" y="202.73" width="4.21" height="4.21" transform="translate(-139.86 72.02) rotate(-45)" style="fill:#231f20"/><rect x="80.91" y="202.73" width="4.21" height="4.21" transform="translate(-120.53 118.69) rotate(-45)" style="fill:#231f20"/><rect x="147.03" y="202.73" width="4.21" height="4.21" transform="translate(-101.16 165.45) rotate(-45)" style="fill:#231f20"/><rect x="213.04" y="202.73" width="4.21" height="4.21" transform="translate(-81.83 212.13) rotate(-45)" style="fill:#231f20"/><rect x="279.04" y="202.73" width="4.21" height="4.21" transform="translate(-62.5 258.8) rotate(-45)" style="fill:#231f20"/><rect x="345.05" y="202.73" width="4.21" height="4.21" transform="translate(-43.17 305.47) rotate(-45)" style="fill:#231f20"/><rect x="411.17" y="202.73" width="4.21" height="4.21" transform="translate(-23.8 352.22) rotate(-45)" style="fill:#231f20"/><rect x="477.18" y="202.73" width="4.21" height="4.21" transform="translate(-4.47 398.9) rotate(-45)" style="fill:#231f20"/><rect x="543.19" y="202.73" width="4.21" height="4.21" transform="translate(14.87 445.57) rotate(-45)" style="fill:#231f20"/><rect x="609.19" y="202.73" width="4.21" height="4.21" transform="translate(34.2 492.25) rotate(-45)" style="fill:#231f20"/><rect x="14.9" y="234.43" width="4.21" height="4.21" transform="translate(-162.27 81.3) rotate(-45)" style="fill:#231f20"/><rect x="80.91" y="234.43" width="4.21" height="4.21" transform="translate(-142.94 127.98) rotate(-45)" style="fill:#231f20"/><rect x="147.03" y="234.43" width="4.21" height="4.21" transform="translate(-123.57 174.74) rotate(-45)" style="fill:#231f20"/><rect x="213.04" y="234.43" width="4.21" height="4.21" transform="translate(-104.24 221.41) rotate(-45)" style="fill:#231f20"/><rect x="279.04" y="234.43" width="4.21" height="4.21" transform="translate(-84.91 268.09) rotate(-45)" style="fill:#231f20"/><rect x="345.05" y="234.43" width="4.21" height="4.21" transform="translate(-65.58 314.75) rotate(-45)" style="fill:#231f20"/><rect x="411.17" y="234.43" width="4.21" height="4.21" transform="translate(-46.21 361.51) rotate(-45)" style="fill:#231f20"/><rect x="477.18" y="234.43" width="4.21" height="4.21" transform="translate(-26.88 408.18) rotate(-45)" style="fill:#231f20"/><rect x="543.19" y="234.43" width="4.21" height="4.21" transform="translate(-7.55 454.85) rotate(-45)" style="fill:#231f20"/><rect x="609.19" y="234.43" width="4.21" height="4.21" transform="translate(11.79 501.54) rotate(-45)" style="fill:#231f20"/><rect x="47.9" y="267.07" width="4.21" height="4.21" transform="translate(-175.69 114.2) rotate(-45)" style="fill:#231f20"/><rect x="113.97" y="266.98" width="4.21" height="4.21" transform="translate(-156.28 160.89) rotate(-45)" style="fill:#231f20"/><rect x="180.03" y="267.07" width="4.21" height="4.21" transform="translate(-136.99 207.63) rotate(-45)" style="fill:#231f20"/><rect x="246.1" y="266.98" width="4.21" height="4.21" transform="translate(-117.58 254.32) rotate(-45)" style="fill:#231f20"/><rect x="312.05" y="267.07" width="4.21" height="4.21" transform="translate(-98.32 300.97) rotate(-45)" style="fill:#231f20"/><rect x="378.11" y="266.98" width="4.21" height="4.21" transform="translate(-78.91 347.67) rotate(-45)" style="fill:#231f20"/><rect x="444.18" y="267.07" width="4.21" height="4.21" transform="translate(-59.62 394.41) rotate(-45)" style="fill:#231f20"/><rect x="510.24" y="266.98" width="4.21" height="4.21" transform="translate(-40.21 441.1) rotate(-45)" style="fill:#231f20"/><rect x="576.19" y="267.07" width="4.21" height="4.21" transform="translate(-20.96 487.75) rotate(-45)" style="fill:#231f20"/><rect x="47.9" y="299.71" width="4.21" height="4.21" transform="translate(-198.77 123.76) rotate(-45)" style="fill:#231f20"/><rect x="113.97" y="299.62" width="4.21" height="4.21" transform="translate(-179.36 170.45) rotate(-45)" style="fill:#231f20"/><rect x="180.03" y="299.71" width="4.21" height="4.21" transform="translate(-160.06 217.19) rotate(-45)" style="fill:#231f20"/><rect x="246.1" y="299.62" width="4.21" height="4.21" transform="translate(-140.65 263.87) rotate(-45)" style="fill:#231f20"/><rect x="312.05" y="299.71" width="4.21" height="4.21" transform="translate(-121.4 310.53) rotate(-45)" style="fill:#231f20"/><rect x="378.11" y="299.62" width="4.21" height="4.21" transform="translate(-101.99 357.23) rotate(-45)" style="fill:#231f20"/><rect x="444.18" y="299.71" width="4.21" height="4.21" transform="translate(-82.7 403.97) rotate(-45)" style="fill:#231f20"/><rect x="510.24" y="299.62" width="4.21" height="4.21" transform="translate(-63.29 450.66) rotate(-45)" style="fill:#231f20"/><rect x="576.19" y="299.71" width="4.21" height="4.21" transform="translate(-44.04 497.31) rotate(-45)" style="fill:#231f20"/></svg>