<svg xmlns="http://www.w3.org/2000/svg" viewBox="0 0 691 157"><title>grid_elements</title><path d="M0,145.61H691V0H0ZM675.6,59.77l3,3-3,3-3-3Zm0,32.64,3,3-3,3-3-3Zm-33-65.28,3,3-3,3-3-3Zm0,97.92,3,3-3,3-3-3ZM609.65,59.69l3,3-3,3-3-3Zm0,32.64,3,3-3,3-3-3ZM576.59,27.14l3,3-3,3-3-3Zm0,97.92,3,3-3,3-3-3Zm-33-65.28,3,3-3,3-3-3Zm0,32.64,3,3-3,3-3-3Zm-33-65.28,3,3-3,3-3-3Zm0,97.92,3,3-3,3-3-3ZM477.52,59.69l3,3-3,3-3-3Zm0,32.64,3,3-3,3-3-3ZM444.46,27.14l3,3-3,3-3-3Zm0,97.92,3,3-3,3-3-3Zm-33-65.28,3,3-3,3-3-3Zm0,32.64,3,3-3,3-3-3Zm-33-65.28,3,3-3,3-3-3Zm0,97.92,3,3-3,3-3-3ZM345.51,59.69l3,3-3,3-3-3Zm0,32.64,3,3-3,3-3-3ZM312.44,27.14l3,3-3,3-3-3Zm0,97.92,3,3-3,3-3-3Zm-33-65.28,3,3-3,3-3-3Zm0,32.64,3,3-3,3-3-3Zm-33-65.28,3,3-3,3-3-3Zm0,97.92,3,3-3,3-3-3ZM213.38,59.69l3,3-3,3-3-3Zm0,32.64,3,3-3,3-3-3ZM180.31,27.14l3,3-3,3-3-3Zm0,97.92,3,3-3,3-3-3Zm-33-65.28,3,3-3,3-3-3Zm0,32.64,3,3-3,3-3-3Zm-33-65.28,3,3-3,3-3-3Zm0,97.92,3,3-3,3-3-3ZM81.36,59.69l3,3-3,3-3-3Zm0,32.64,3,3-3,3-3-3ZM48.3,27.14l3,3-3,3-3-3Zm0,97.92,3,3-3,3-3-3Zm-33-65.28,3,3-3,3-3-3Zm0,32.64,3,3-3,3-3-3Z" style="fill:none"/><rect x="46.2" y="28.01" width="4.21" height="4.21" transform="translate(-7.15 42.97) rotate(-45)" style="fill:#231f20"/><rect x="112.2" y="28.01" width="4.21" height="4.21" transform="translate(12.19 89.65) rotate(-45)" style="fill:#231f20"/><rect x="178.21" y="28.01" width="4.21" height="4.21" transform="translate(31.52 136.32) rotate(-45)" style="fill:#231f20"/><rect x="244.33" y="28.01" width="4.21" height="4.21" transform="translate(50.89 183.08) rotate(-45)" style="fill:#231f20"/><rect x="310.34" y="28.01" width="4.21" height="4.21" transform="translate(70.22 229.75) rotate(-45)" style="fill:#231f20"/><rect x="376.34" y="28.01" width="4.21" height="4.21" transform="translate(89.55 276.43) rotate(-45)" style="fill:#231f20"/><rect x="442.35" y="28.01" width="4.21" height="4.21" transform="translate(108.88 323.1) rotate(-45)" style="fill:#231f20"/><rect x="508.48" y="28.01" width="4.21" height="4.21" transform="translate(128.25 369.86) rotate(-45)" style="fill:#231f20"/><rect x="574.48" y="28.01" width="4.21" height="4.21" transform="translate(147.58 416.53) rotate(-45)" style="fill:#231f20"/><rect x="640.49" y="28.01" width="4.21" height="4.21" transform="translate(166.91 463.19) rotate(-45)" style="fill:#231f20"/><rect x="13.19" y="60.65" width="4.21" height="4.21" transform="translate(-39.89 29.2) rotate(-45)" style="fill:#231f20"/><rect x="79.26" y="60.56" width="4.21" height="4.21" transform="translate(-20.48 75.89) rotate(-45)" style="fill:#231f20"/><rect x="145.21" y="60.65" width="4.21" height="4.21" transform="translate(-1.23 122.54) rotate(-45)" style="fill:#231f20"/><rect x="211.27" y="60.56" width="4.21" height="4.21" transform="translate(18.18 169.23) rotate(-45)" style="fill:#231f20"/><rect x="277.34" y="60.65" width="4.21" height="4.21" transform="translate(37.47 215.97) rotate(-45)" style="fill:#231f20"/><rect x="343.4" y="60.56" width="4.21" height="4.21" transform="translate(56.88 262.66) rotate(-45)" style="fill:#231f20"/><rect x="409.35" y="60.65" width="4.21" height="4.21" transform="translate(76.14 309.32) rotate(-45)" style="fill:#231f20"/><rect x="475.41" y="60.56" width="4.21" height="4.21" transform="translate(95.55 356.01) rotate(-45)" style="fill:#231f20"/><rect x="541.48" y="60.65" width="4.21" height="4.21" transform="translate(114.84 402.75) rotate(-45)" style="fill:#231f20"/><rect x="607.54" y="60.56" width="4.21" height="4.21" transform="translate(134.25 449.45) rotate(-45)" style="fill:#231f20"/><rect x="673.49" y="60.65" width="4.21" height="4.21" transform="translate(153.52 496.11) rotate(-45)" style="fill:#231f20"/><rect x="13.19" y="93.28" width="4.21" height="4.21" transform="translate(-62.97 38.76) rotate(-45)" style="fill:#231f20"/><rect x="79.26" y="93.2" width="4.21" height="4.21" transform="translate(-43.56 85.45) rotate(-45)" style="fill:#231f20"/><rect x="145.21" y="93.28" width="4.21" height="4.21" transform="translate(-24.3 132.1) rotate(-45)" style="fill:#231f20"/><rect x="211.27" y="93.2" width="4.21" height="4.21" transform="translate(-4.89 178.79) rotate(-45)" style="fill:#231f20"/><rect x="277.34" y="93.28" width="4.21" height="4.21" transform="translate(14.4 225.53) rotate(-45)" style="fill:#231f20"/><rect x="343.4" y="93.2" width="4.21" height="4.21" transform="translate(33.81 272.22) rotate(-45)" style="fill:#231f20"/><rect x="409.35" y="93.28" width="4.21" height="4.21" transform="translate(53.06 318.88) rotate(-45)" style="fill:#231f20"/><rect x="475.41" y="93.2" width="4.21" height="4.21" transform="translate(72.47 365.57) rotate(-45)" style="fill:#231f20"/><rect x="541.48" y="93.28" width="4.21" height="4.21" transform="translate(91.76 412.31) rotate(-45)" style="fill:#231f20"/><rect x="607.54" y="93.2" width="4.21" height="4.21" transform="translate(111.18 459.01) rotate(-45)" style="fill:#231f20"/><rect x="673.49" y="93.28" width="4.21" height="4.21" transform="translate(130.44 505.67) rotate(-45)" style="fill:#231f20"/><rect x="46.2" y="125.92" width="4.21" height="4.21" transform="translate(-76.38 71.65) rotate(-45)" style="fill:#231f20"/><rect x="112.2" y="125.92" width="4.21" height="4.21" transform="translate(-57.05 118.33) rotate(-45)" style="fill:#231f20"/><rect x="178.21" y="125.92" width="4.21" height="4.21" transform="translate(-37.72 165) rotate(-45)" style="fill:#231f20"/><rect x="244.33" y="125.92" width="4.21" height="4.21" transform="translate(-18.35 211.76) rotate(-45)" style="fill:#231f20"/><rect x="310.34" y="125.92" width="4.21" height="4.21" transform="translate(0.98 258.43) rotate(-45)" style="fill:#231f20"/><rect x="376.34" y="125.92" width="4.21" height="4.21" transform="translate(20.32 305.11) rotate(-45)" style="fill:#231f20"/><rect x="442.35" y="125.92" width="4.21" height="4.21" transform="translate(39.65 351.78) rotate(-45)" style="fill:#231f20"/><rect x="508.48" y="125.92" width="4.21" height="4.21" transform="translate(59.02 398.54) rotate(-45)" style="fill:#231f20"/><rect x="574.48" y="125.92" width="4.21" height="4.21" transform="translate(78.35 445.21) rotate(-45)" style="fill:#231f20"/><rect x="640.49" y="125.92" width="4.21" height="4.21" transform="translate(97.68 491.88) rotate(-45)" style="fill:#231f20"/></svg>