<svg xmlns="http://www.w3.org/2000/svg" viewBox="0 0 147 749"><title>grid_elements</title><path d="M0,2V736.27H147V2ZM89.75,55.49l3,3-3,3-3-3Zm0,132,3,3-3,3-3-3Zm0,132.13,3,3-3,3-3-3Zm0,132,3,3-3,3-3-3Zm0,132.13,3,3-3,3-3-3ZM57.11,55.49l3,3-3,3-3-3Zm0,132,3,3-3,3-3-3Zm0,132.13,3,3-3,3-3-3Zm0,132,3,3-3,3-3-3Zm0,132.13,3,3-3,3-3-3Zm-32.64,105-3-3,3-3,3,3Zm0-66-3-3,3-3,3,3Zm0-66-3-3,3-3,3,3Zm0-66.12-3-3,3-3,3,3Zm0-66-3-3,3-3,3,3Zm0-66-3-3,3-3,3,3Zm0-66-3-3,3-3,3,3Zm0-66.12-3-3,3-3,3,3Zm0-66-3-3,3-3,3,3Zm0-66-3-3,3-3,3,3Zm0-66-3-3,3-3,3,3Zm32.64,693.3-3-3,3-3,3,3Zm.09-65.95-3-3,3-3,3,3Zm0-132.13-3-3,3-3,3,3Zm0-132-3-3,3-3,3,3Zm0-132.13-3-3,3-3,3,3Zm0-132-3-3,3-3,3,3ZM89.75,721.74l-3-3,3-3,3,3Zm.09-65.95-3-3,3-3,3,3Zm0-132.13-3-3,3-3,3,3Zm0-132-3-3,3-3,3,3Zm0-132.13-3-3,3-3,3,3Zm0-132-3-3,3-3,3,3Zm32.55,561.23-3-3,3-3,3,3Zm0-66-3-3,3-3,3,3Zm0-66-3-3,3-3,3,3Zm0-66.12-3-3,3-3,3,3Zm0-66-3-3,3-3,3,3Zm0-66-3-3,3-3,3,3Zm0-66-3-3,3-3,3,3Zm0-66.12-3-3,3-3,3,3Zm0-66-3-3,3-3,3,3Zm0-66-3-3,3-3,3,3Zm0-66-3-3,3-3,3,3Z" style="fill:none"/><rect x="120.28" y="23.36" width="4.21" height="4.21" transform="translate(17.84 94) rotate(-45)" style="fill:#231f20"/><rect x="120.28" y="89.36" width="4.21" height="4.21" transform="translate(-28.83 113.33) rotate(-45)" style="fill:#231f20"/><rect x="120.28" y="155.37" width="4.21" height="4.21" transform="translate(-75.51 132.66) rotate(-45)" style="fill:#231f20"/><rect x="120.28" y="221.38" width="4.21" height="4.21" transform="translate(-122.18 151.99) rotate(-45)" style="fill:#231f20"/><rect x="120.28" y="287.5" width="4.21" height="4.21" transform="translate(-168.93 171.36) rotate(-45)" style="fill:#231f20"/><rect x="120.28" y="353.51" width="4.21" height="4.21" transform="translate(-215.61 190.69) rotate(-45)" style="fill:#231f20"/><rect x="120.28" y="419.51" width="4.21" height="4.21" transform="translate(-262.28 210.03) rotate(-45)" style="fill:#231f20"/><rect x="120.28" y="485.52" width="4.21" height="4.21" transform="translate(-308.95 229.35) rotate(-45)" style="fill:#231f20"/><rect x="120.28" y="551.64" width="4.21" height="4.21" transform="translate(-355.71 248.72) rotate(-45)" style="fill:#231f20"/><rect x="120.28" y="617.65" width="4.21" height="4.21" transform="translate(-402.38 268.06) rotate(-45)" style="fill:#231f20"/><rect x="120.28" y="683.66" width="4.21" height="4.21" transform="translate(-449.06 287.39) rotate(-45)" style="fill:#231f20"/><rect x="87.64" y="56.36" width="4.21" height="4.21" transform="translate(-15.06 80.58) rotate(-45)" style="fill:#231f20"/><rect x="87.73" y="122.43" width="4.21" height="4.21" transform="translate(-61.75 100) rotate(-45)" style="fill:#231f20"/><rect x="87.64" y="188.37" width="4.21" height="4.21" transform="translate(-108.4 119.25) rotate(-45)" style="fill:#231f20"/><rect x="87.73" y="254.44" width="4.21" height="4.21" transform="translate(-155.09 138.66) rotate(-45)" style="fill:#231f20"/><rect x="87.64" y="320.5" width="4.21" height="4.21" transform="translate(-201.83 157.95) rotate(-45)" style="fill:#231f20"/><rect x="87.73" y="386.57" width="4.21" height="4.21" transform="translate(-248.52 177.36) rotate(-45)" style="fill:#231f20"/><rect x="87.64" y="452.52" width="4.21" height="4.21" transform="translate(-295.18 196.61) rotate(-45)" style="fill:#231f20"/><rect x="87.73" y="518.58" width="4.21" height="4.21" transform="translate(-341.87 216.03) rotate(-45)" style="fill:#231f20"/><rect x="87.64" y="584.65" width="4.21" height="4.21" transform="translate(-388.6 235.31) rotate(-45)" style="fill:#231f20"/><rect x="87.73" y="650.71" width="4.21" height="4.21" transform="translate(-435.3 254.73) rotate(-45)" style="fill:#231f20"/><rect x="87.64" y="716.66" width="4.21" height="4.21" transform="translate(-481.96 273.98) rotate(-45)" style="fill:#231f20"/><rect x="55" y="56.36" width="4.21" height="4.21" transform="translate(-24.62 57.51) rotate(-45)" style="fill:#231f20"/><rect x="55.09" y="122.43" width="4.21" height="4.21" transform="translate(-71.31 76.92) rotate(-45)" style="fill:#231f20"/><rect x="55" y="188.37" width="4.21" height="4.21" transform="translate(-117.96 96.17) rotate(-45)" style="fill:#231f20"/><rect x="55.09" y="254.44" width="4.21" height="4.21" transform="translate(-164.65 115.59) rotate(-45)" style="fill:#231f20"/><rect x="55" y="320.5" width="4.21" height="4.21" transform="translate(-211.39 134.87) rotate(-45)" style="fill:#231f20"/><rect x="55.09" y="386.57" width="4.21" height="4.21" transform="translate(-258.08 154.28) rotate(-45)" style="fill:#231f20"/><rect x="55" y="452.52" width="4.21" height="4.21" transform="translate(-304.74 173.53) rotate(-45)" style="fill:#231f20"/><rect x="55.09" y="518.58" width="4.21" height="4.21" transform="translate(-351.43 192.95) rotate(-45)" style="fill:#231f20"/><rect x="55" y="584.65" width="4.21" height="4.21" transform="translate(-398.16 212.23) rotate(-45)" style="fill:#231f20"/><rect x="55.09" y="650.71" width="4.21" height="4.21" transform="translate(-444.86 231.65) rotate(-45)" style="fill:#231f20"/><rect x="55" y="716.66" width="4.21" height="4.21" transform="translate(-491.51 250.89) rotate(-45)" style="fill:#231f20"/><rect x="22.37" y="23.36" width="4.21" height="4.21" transform="translate(-10.84 24.76) rotate(-45)" style="fill:#231f20"/><rect x="22.37" y="89.36" width="4.21" height="4.21" transform="translate(-57.51 44.1) rotate(-45)" style="fill:#231f20"/><rect x="22.37" y="155.37" width="4.21" height="4.21" transform="translate(-104.19 63.43) rotate(-45)" style="fill:#231f20"/><rect x="22.37" y="221.38" width="4.21" height="4.21" transform="translate(-150.86 82.76) rotate(-45)" style="fill:#231f20"/><rect x="22.37" y="287.5" width="4.21" height="4.21" transform="translate(-197.62 102.13) rotate(-45)" style="fill:#231f20"/><rect x="22.37" y="353.51" width="4.21" height="4.21" transform="translate(-244.29 121.46) rotate(-45)" style="fill:#231f20"/><rect x="22.37" y="419.51" width="4.21" height="4.21" transform="translate(-290.97 140.8) rotate(-45)" style="fill:#231f20"/><rect x="22.37" y="485.52" width="4.21" height="4.21" transform="translate(-337.64 160.13) rotate(-45)" style="fill:#231f20"/><rect x="22.37" y="551.64" width="4.21" height="4.21" transform="translate(-384.4 179.5) rotate(-45)" style="fill:#231f20"/><rect x="22.37" y="617.65" width="4.21" height="4.21" transform="translate(-431.07 198.83) rotate(-45)" style="fill:#231f20"/><rect x="22.37" y="683.66" width="4.21" height="4.21" transform="translate(-477.74 218.16) rotate(-45)" style="fill:#231f20"/></svg>