<svg xmlns="http://www.w3.org/2000/svg" viewBox="0 0 127 343"><title>grid_elements</title><path d="M0,0V343H127V0ZM14.47,321.1l-3-3,3-3,3,3Zm0-66-3-3,3-3,3,3Zm0-66-3-3,3-3,3,3Zm0-66.12-3-3,3-3,3,3Zm0-66-3-3,3-3,3,3ZM47.11,216.13l3,3-3,3-3-3Zm.09,72-3-3,3-3,3,3ZM47.2,156l-3-3,3-3,3,3ZM44.13,87l3-3,3,3-3,3ZM47.2,24l-3-3,3-3,3,3ZM79.75,216.13l3,3-3,3-3-3Zm.09,72-3-3,3-3,3,3Zm0-132.13-3-3,3-3,3,3ZM76.77,87l3-3,3,3-3,3Zm3.06-63-3-3,3-3,3,3ZM112.39,321.1l-3-3,3-3,3,3Zm0-66-3-3,3-3,3,3Zm0-66-3-3,3-3,3,3Zm0-66.12-3-3,3-3,3,3Zm0-66-3-3,3-3,3,3Z" style="fill:none"/><rect x="110.28" y="51.87" width="4.21" height="4.21" transform="translate(-5.25 95.28) rotate(-45)" style="fill:#231f20"/><rect x="110.28" y="117.88" width="4.21" height="4.21" transform="translate(-51.92 114.61) rotate(-45)" style="fill:#231f20"/><rect x="110.28" y="184" width="4.21" height="4.21" transform="translate(-98.68 133.98) rotate(-45)" style="fill:#231f20"/><rect x="110.28" y="250.01" width="4.21" height="4.21" transform="translate(-145.35 153.31) rotate(-45)" style="fill:#231f20"/><rect x="110.28" y="316.01" width="4.21" height="4.21" transform="translate(-192.03 172.64) rotate(-45)" style="fill:#231f20"/><rect x="77.73" y="18.93" width="4.21" height="4.21" transform="translate(8.51 62.61) rotate(-45)" style="fill:#231f20"/><rect x="77.64" y="84.87" width="4.21" height="4.21" transform="translate(-38.15 81.87) rotate(-45)" style="fill:#231f20"/><rect x="77.73" y="150.94" width="4.21" height="4.21" transform="translate(-84.84 101.28) rotate(-45)" style="fill:#231f20"/><rect x="77.64" y="217" width="4.21" height="4.21" transform="translate(-131.58 120.57) rotate(-45)" style="fill:#231f20"/><rect x="77.73" y="283.07" width="4.21" height="4.21" transform="translate(-178.27 139.98) rotate(-45)" style="fill:#231f20"/><rect x="45.09" y="18.93" width="4.21" height="4.21" transform="translate(-1.05 39.53) rotate(-45)" style="fill:#231f20"/><rect x="45" y="84.87" width="4.21" height="4.21" transform="translate(-47.71 58.79) rotate(-45)" style="fill:#231f20"/><rect x="45.09" y="150.94" width="4.21" height="4.21" transform="translate(-94.4 78.2) rotate(-45)" style="fill:#231f20"/><rect x="45" y="217" width="4.21" height="4.21" transform="translate(-141.14 97.49) rotate(-45)" style="fill:#231f20"/><rect x="45.09" y="283.07" width="4.21" height="4.21" transform="translate(-187.83 116.9) rotate(-45)" style="fill:#231f20"/><rect x="12.37" y="51.87" width="4.21" height="4.21" transform="translate(-33.93 26.04) rotate(-45)" style="fill:#231f20"/><rect x="12.37" y="117.88" width="4.21" height="4.21" transform="translate(-80.6 45.37) rotate(-45)" style="fill:#231f20"/><rect x="12.37" y="184" width="4.21" height="4.21" transform="translate(-127.36 64.74) rotate(-45)" style="fill:#231f20"/><rect x="12.37" y="250.01" width="4.21" height="4.21" transform="translate(-174.03 84.07) rotate(-45)" style="fill:#231f20"/><rect x="12.37" y="316.01" width="4.21" height="4.21" transform="translate(-220.71 103.41) rotate(-45)" style="fill:#231f20"/></svg>