<svg xmlns="http://www.w3.org/2000/svg" viewBox="0 0 595 118"><title>grid_elements</title><path d="M12.73,118H589.13V0H12.73ZM563.05,40.19l3,3-3,3-3-3Zm0,32.64,3,3-3,3-3-3ZM530,7.64l3,3-3,3-3-3Zm0,97.92,3,3-3,3-3-3ZM497,40.27l3,3-3,3-3-3Zm0,32.64,3,3-3,3-3-3ZM464,7.64l3,3-3,3-3-3Zm0,97.92,3,3-3,3-3-3ZM430.92,40.19l3,3-3,3-3-3Zm0,32.64,3,3-3,3-3-3ZM397.86,7.64l3,3-3,3-3-3Zm0,97.92,3,3-3,3-3-3Zm-33-65.28,3,3-3,3-3-3Zm0,32.64,3,3-3,3-3-3Zm-33-65.28,3,3-3,3-3-3Zm0,97.92,3,3-3,3-3-3ZM298.91,40.19l3,3-3,3-3-3Zm0,32.64,3,3-3,3-3-3ZM265.85,7.64l3,3-3,3-3-3Zm0,97.92,3,3-3,3-3-3Zm-33-65.28,3,3-3,3-3-3Zm0,32.64,3,3-3,3-3-3Zm-33-65.28,3,3-3,3-3-3Zm0,97.92,3,3-3,3-3-3ZM166.78,40.19l3,3-3,3-3-3Zm0,32.64,3,3-3,3-3-3ZM133.72,7.64l3,3-3,3-3-3Zm0,97.92,3,3-3,3-3-3Zm-33-65.28,3,3-3,3-3-3Zm0,32.64,3,3-3,3-3-3Zm-33-65.28,3,3-3,3-3-3Zm0,97.92,3,3-3,3-3-3ZM34.77,40.19l3,3-3,3-3-3Zm0,32.64,3,3-3,3-3-3Z" style="fill:none"/><rect x="65.61" y="8.51" width="4.21" height="4.21" transform="translate(12.33 50.99) rotate(-45)" style="fill:#231f20"/><rect x="131.61" y="8.51" width="4.21" height="4.21" transform="translate(31.66 97.66) rotate(-45)" style="fill:#231f20"/><rect x="197.74" y="8.51" width="4.21" height="4.21" transform="translate(51.03 144.42) rotate(-45)" style="fill:#231f20"/><rect x="263.74" y="8.51" width="4.21" height="4.21" transform="translate(70.36 191.09) rotate(-45)" style="fill:#231f20"/><rect x="329.75" y="8.51" width="4.21" height="4.21" transform="translate(89.69 237.76) rotate(-45)" style="fill:#231f20"/><rect x="395.75" y="8.51" width="4.21" height="4.21" transform="translate(109.02 284.43) rotate(-45)" style="fill:#231f20"/><rect x="461.88" y="8.51" width="4.21" height="4.21" transform="translate(128.39 331.19) rotate(-45)" style="fill:#231f20"/><rect x="527.88" y="8.51" width="4.21" height="4.21" transform="translate(147.72 377.86) rotate(-45)" style="fill:#231f20"/><rect x="32.66" y="41.06" width="4.21" height="4.21" transform="translate(-20.34 37.23) rotate(-45)" style="fill:#231f20"/><rect x="98.61" y="41.15" width="4.21" height="4.21" transform="translate(-1.08 83.88) rotate(-45)" style="fill:#231f20"/><rect x="164.67" y="41.06" width="4.21" height="4.21" transform="translate(18.33 130.57) rotate(-45)" style="fill:#231f20"/><rect x="230.74" y="41.15" width="4.21" height="4.21" transform="translate(37.61 177.31) rotate(-45)" style="fill:#231f20"/><rect x="296.8" y="41.06" width="4.21" height="4.21" transform="translate(57.03 224) rotate(-45)" style="fill:#231f20"/><rect x="362.75" y="41.15" width="4.21" height="4.21" transform="translate(76.28 270.66) rotate(-45)" style="fill:#231f20"/><rect x="428.82" y="41.06" width="4.21" height="4.21" transform="translate(95.69 317.35) rotate(-45)" style="fill:#231f20"/><rect x="494.88" y="41.15" width="4.21" height="4.21" transform="translate(114.98 364.09) rotate(-45)" style="fill:#231f20"/><rect x="560.95" y="41.06" width="4.21" height="4.21" transform="translate(134.39 410.78) rotate(-45)" style="fill:#231f20"/><rect x="32.66" y="73.7" width="4.21" height="4.21" transform="translate(-43.42 46.79) rotate(-45)" style="fill:#231f20"/><rect x="98.61" y="73.78" width="4.21" height="4.21" transform="translate(-24.16 93.44) rotate(-45)" style="fill:#231f20"/><rect x="164.67" y="73.7" width="4.21" height="4.21" transform="translate(-4.75 140.13) rotate(-45)" style="fill:#231f20"/><rect x="230.74" y="73.78" width="4.21" height="4.21" transform="translate(14.54 186.87) rotate(-45)" style="fill:#231f20"/><rect x="296.8" y="73.7" width="4.21" height="4.21" transform="translate(33.95 233.56) rotate(-45)" style="fill:#231f20"/><rect x="362.75" y="73.78" width="4.21" height="4.21" transform="translate(53.2 280.22) rotate(-45)" style="fill:#231f20"/><rect x="428.82" y="73.7" width="4.21" height="4.21" transform="translate(72.61 326.91) rotate(-45)" style="fill:#231f20"/><rect x="494.88" y="73.78" width="4.21" height="4.21" transform="translate(91.9 373.65) rotate(-45)" style="fill:#231f20"/><rect x="560.95" y="73.7" width="4.21" height="4.21" transform="translate(111.31 420.34) rotate(-45)" style="fill:#231f20"/><rect x="65.61" y="106.42" width="4.21" height="4.21" transform="translate(-56.91 79.67) rotate(-45)" style="fill:#231f20"/><rect x="131.61" y="106.42" width="4.21" height="4.21" transform="translate(-37.58 126.34) rotate(-45)" style="fill:#231f20"/><rect x="197.74" y="106.42" width="4.21" height="4.21" transform="translate(-18.21 173.1) rotate(-45)" style="fill:#231f20"/><rect x="263.74" y="106.42" width="4.21" height="4.21" transform="translate(1.12 219.77) rotate(-45)" style="fill:#231f20"/><rect x="329.75" y="106.42" width="4.21" height="4.21" transform="translate(20.46 266.44) rotate(-45)" style="fill:#231f20"/><rect x="395.75" y="106.42" width="4.21" height="4.21" transform="translate(39.79 313.12) rotate(-45)" style="fill:#231f20"/><rect x="461.88" y="106.42" width="4.21" height="4.21" transform="translate(59.16 359.87) rotate(-45)" style="fill:#231f20"/><rect x="527.88" y="106.42" width="4.21" height="4.21" transform="translate(78.49 406.55) rotate(-45)" style="fill:#231f20"/></svg>