<svg xmlns="http://www.w3.org/2000/svg" viewBox="0 0 728 311"><title>grid_elements</title><path d="M0,308.5H728V2.5H0ZM709.71,72.05l3,3-3,3-3-3Zm0,32.4,3,3-3,3-3-3Zm0,97.92,3,3-3,3-3-3Zm0,31.69,3,3-3,3-3-3ZM676.65,6.69l3,3-3,3-3-3Zm0,32.64,3,3-3,3-3-3Zm0,97.67,3,3-3,3-3-3Zm0,32.64,3,3-3,3-3-3Zm0,97,3,3-3,3-3-3Zm0,32.64,3,3-3,3-3-3ZM643.59,72.05l3,3-3,3-3-3Zm0,32.4,3,3-3,3-3-3Zm0,97.92,3,3-3,3-3-3Zm0,31.69,3,3-3,3-3-3Zm-33-227.28,3,3-3,3-3-3Zm0,32.64,3,3-3,3-3-3Zm0,97.67,3,3-3,3-3-3Zm0,32.64,3,3-3,3-3-3Zm0,97,3,3-3,3-3-3Zm0,32.64,3,3-3,3-3-3Zm-33-227.28,3,3-3,3-3-3Zm0,32.4,3,3-3,3-3-3Zm0,97.92,3,3-3,3-3-3Zm0,31.69,3,3-3,3-3-3ZM544.64,6.69l3,3-3,3-3-3Zm0,32.64,3,3-3,3-3-3Zm0,97.67,3,3-3,3-3-3Zm0,32.64,3,3-3,3-3-3Zm0,97,3,3-3,3-3-3Zm0,32.64,3,3-3,3-3-3ZM511.57,72.05l3,3-3,3-3-3Zm0,32.4,3,3-3,3-3-3Zm0,97.92,3,3-3,3-3-3Zm0,31.69,3,3-3,3-3-3Zm-33-227.28,3,3-3,3-3-3Zm0,32.64,3,3-3,3-3-3Zm0,97.67,3,3-3,3-3-3Zm0,32.64,3,3-3,3-3-3Zm0,97,3,3-3,3-3-3Zm0,32.64,3,3-3,3-3-3Zm-33-227.28,3,3-3,3-3-3Zm0,32.4,3,3-3,3-3-3Zm0,97.92,3,3-3,3-3-3Zm0,31.69,3,3-3,3-3-3ZM412.5,6.69l3,3-3,3-3-3Zm0,32.64,3,3-3,3-3-3Zm0,97.67,3,3-3,3-3-3Zm0,32.64,3,3-3,3-3-3Zm0,97,3,3-3,3-3-3Zm0,32.64,3,3-3,3-3-3ZM379.44,72.05l3,3-3,3-3-3Zm0,32.4,3,3-3,3-3-3Zm0,97.92,3,3-3,3-3-3Zm0,31.69,3,3-3,3-3-3Zm-33-227.28,3,3-3,3-3-3Zm0,32.64,3,3-3,3-3-3Zm0,97.67,3,3-3,3-3-3Zm0,32.64,3,3-3,3-3-3Zm0,97,3,3-3,3-3-3Zm0,32.64,3,3-3,3-3-3Zm-33-227.28,3,3-3,3-3-3Zm0,32.4,3,3-3,3-3-3Zm0,97.92,3,3-3,3-3-3Zm0,31.69,3,3-3,3-3-3ZM280.49,6.69l3,3-3,3-3-3Zm0,32.64,3,3-3,3-3-3Zm0,97.67,3,3-3,3-3-3Zm0,32.64,3,3-3,3-3-3Zm0,97,3,3-3,3-3-3Zm0,32.64,3,3-3,3-3-3ZM247.43,72.05l3,3-3,3-3-3Zm0,32.4,3,3-3,3-3-3Zm0,97.92,3,3-3,3-3-3Zm0,31.69,3,3-3,3-3-3Zm-33-227.28,3,3-3,3-3-3Zm0,32.64,3,3-3,3-3-3Zm0,97.67,3,3-3,3-3-3Zm0,32.64,3,3-3,3-3-3Zm0,97,3,3-3,3-3-3Zm0,32.64,3,3-3,3-3-3Zm-33-227.28,3,3-3,3-3-3Zm0,32.4,3,3-3,3-3-3Zm0,97.92,3,3-3,3-3-3Zm0,31.69,3,3-3,3-3-3ZM148.36,6.69l3,3-3,3-3-3Zm0,32.64,3,3-3,3-3-3Zm0,97.67,3,3-3,3-3-3Zm0,32.64,3,3-3,3-3-3Zm0,97,3,3-3,3-3-3Zm0,32.64,3,3-3,3-3-3ZM115.3,72.05l3,3-3,3-3-3Zm0,32.4,3,3-3,3-3-3Zm0,97.92,3,3-3,3-3-3Zm0,31.69,3,3-3,3-3-3ZM82.3,6.77l3,3-3,3-3-3Zm0,32.64,3,3-3,3-3-3Zm0,97.67,3,3-3,3-3-3Zm0,32.64,3,3-3,3-3-3Zm0,97,3,3-3,3-3-3Zm0,32.64,3,3-3,3-3-3Zm-33-227.28,3,3-3,3-3-3Zm0,32.4,3,3-3,3-3-3Zm0,97.92,3,3-3,3-3-3Zm0,31.69,3,3-3,3-3-3ZM16.35,6.69l3,3-3,3-3-3Zm0,32.64,3,3-3,3-3-3Zm0,97.67,3,3-3,3-3-3Zm0,32.64,3,3-3,3-3-3Zm0,97,3,3-3,3-3-3Zm0,32.64,3,3-3,3-3-3Z" style="fill:none"/><rect x="14.24" y="7.56" width="4.21" height="4.21" transform="translate(-2.05 14.39) rotate(-45)" style="fill:#231f20"/><rect x="80.19" y="7.65" width="4.21" height="4.21" transform="translate(17.21 61.05) rotate(-45)" style="fill:#231f20"/><rect x="146.26" y="7.56" width="4.21" height="4.21" transform="translate(36.62 107.74) rotate(-45)" style="fill:#231f20"/><rect x="212.32" y="7.65" width="4.21" height="4.21" transform="translate(55.91 154.48) rotate(-45)" style="fill:#231f20"/><rect x="278.39" y="7.56" width="4.21" height="4.21" transform="translate(75.32 201.17) rotate(-45)" style="fill:#231f20"/><rect x="344.33" y="7.65" width="4.21" height="4.21" transform="translate(94.58 247.83) rotate(-45)" style="fill:#231f20"/><rect x="410.4" y="7.56" width="4.21" height="4.21" transform="translate(113.98 294.52) rotate(-45)" style="fill:#231f20"/><rect x="476.46" y="7.65" width="4.21" height="4.21" transform="translate(133.27 341.25) rotate(-45)" style="fill:#231f20"/><rect x="542.53" y="7.56" width="4.21" height="4.21" transform="translate(152.68 387.94) rotate(-45)" style="fill:#231f20"/><rect x="608.48" y="7.65" width="4.21" height="4.21" transform="translate(171.94 434.6) rotate(-45)" style="fill:#231f20"/><rect x="674.54" y="7.56" width="4.21" height="4.21" transform="translate(191.34 481.28) rotate(-45)" style="fill:#231f20"/><rect x="14.24" y="40.2" width="4.21" height="4.21" transform="translate(-25.13 23.95) rotate(-45)" style="fill:#231f20"/><rect x="80.19" y="40.28" width="4.21" height="4.21" transform="translate(-5.87 70.61) rotate(-45)" style="fill:#231f20"/><rect x="146.26" y="40.2" width="4.21" height="4.21" transform="translate(13.54 117.3) rotate(-45)" style="fill:#231f20"/><rect x="212.32" y="40.28" width="4.21" height="4.21" transform="translate(32.83 164.04) rotate(-45)" style="fill:#231f20"/><rect x="278.39" y="40.2" width="4.21" height="4.21" transform="translate(52.24 210.73) rotate(-45)" style="fill:#231f20"/><rect x="344.33" y="40.28" width="4.21" height="4.21" transform="translate(71.5 257.39) rotate(-45)" style="fill:#231f20"/><rect x="410.4" y="40.2" width="4.21" height="4.21" transform="translate(90.91 304.08) rotate(-45)" style="fill:#231f20"/><rect x="476.46" y="40.28" width="4.21" height="4.21" transform="translate(110.19 350.81) rotate(-45)" style="fill:#231f20"/><rect x="542.53" y="40.2" width="4.21" height="4.21" transform="translate(129.6 397.5) rotate(-45)" style="fill:#231f20"/><rect x="608.48" y="40.28" width="4.21" height="4.21" transform="translate(148.86 444.16) rotate(-45)" style="fill:#231f20"/><rect x="674.54" y="40.2" width="4.21" height="4.21" transform="translate(168.27 490.85) rotate(-45)" style="fill:#231f20"/><rect x="47.19" y="72.92" width="4.21" height="4.21" transform="translate(-38.62 56.83) rotate(-45)" style="fill:#231f20"/><rect x="113.19" y="72.92" width="4.21" height="4.21" transform="translate(-19.28 103.51) rotate(-45)" style="fill:#231f20"/><rect x="179.32" y="72.92" width="4.21" height="4.21" transform="translate(0.09 150.26) rotate(-45)" style="fill:#231f20"/><rect x="245.33" y="72.92" width="4.21" height="4.21" transform="translate(19.42 196.94) rotate(-45)" style="fill:#231f20"/><rect x="311.33" y="72.92" width="4.21" height="4.21" transform="translate(38.75 243.61) rotate(-45)" style="fill:#231f20"/><rect x="377.34" y="72.92" width="4.21" height="4.21" transform="translate(58.08 290.28) rotate(-45)" style="fill:#231f20"/><rect x="443.46" y="72.92" width="4.21" height="4.21" transform="translate(77.45 337.04) rotate(-45)" style="fill:#231f20"/><rect x="509.47" y="72.92" width="4.21" height="4.21" transform="translate(96.78 383.71) rotate(-45)" style="fill:#231f20"/><rect x="575.47" y="72.92" width="4.21" height="4.21" transform="translate(116.13 430.4) rotate(-45)" style="fill:#231f20"/><rect x="641.48" y="72.92" width="4.21" height="4.21" transform="translate(135.44 477.05) rotate(-45)" style="fill:#231f20"/><rect x="707.6" y="72.92" width="4.21" height="4.21" transform="translate(154.83 523.83) rotate(-45)" style="fill:#231f20"/><rect x="47.19" y="105.32" width="4.21" height="4.21" transform="translate(-61.52 66.32) rotate(-45)" style="fill:#231f20"/><rect x="113.19" y="105.32" width="4.21" height="4.21" transform="translate(-42.19 113) rotate(-45)" style="fill:#231f20"/><rect x="179.32" y="105.32" width="4.21" height="4.21" transform="translate(-22.82 159.75) rotate(-45)" style="fill:#231f20"/><rect x="245.33" y="105.32" width="4.21" height="4.21" transform="translate(-3.49 206.43) rotate(-45)" style="fill:#231f20"/><rect x="311.33" y="105.32" width="4.21" height="4.21" transform="translate(15.84 253.09) rotate(-45)" style="fill:#231f20"/><rect x="377.34" y="105.32" width="4.21" height="4.21" transform="translate(35.17 299.77) rotate(-45)" style="fill:#231f20"/><rect x="443.46" y="105.32" width="4.21" height="4.21" transform="translate(54.54 346.52) rotate(-45)" style="fill:#231f20"/><rect x="509.47" y="105.32" width="4.21" height="4.21" transform="translate(73.87 393.2) rotate(-45)" style="fill:#231f20"/><rect x="575.47" y="105.32" width="4.21" height="4.21" transform="translate(93.22 439.89) rotate(-45)" style="fill:#231f20"/><rect x="641.48" y="105.32" width="4.21" height="4.21" transform="translate(112.54 486.54) rotate(-45)" style="fill:#231f20"/><rect x="707.6" y="105.32" width="4.21" height="4.21" transform="translate(131.92 533.32) rotate(-45)" style="fill:#231f20"/><rect x="14.24" y="137.87" width="4.21" height="4.21" transform="translate(-94.19 52.56) rotate(-45)" style="fill:#231f20"/><rect x="80.19" y="137.96" width="4.21" height="4.21" transform="translate(-74.94 99.22) rotate(-45)" style="fill:#231f20"/><rect x="146.26" y="137.87" width="4.21" height="4.21" transform="translate(-55.53 145.9) rotate(-45)" style="fill:#231f20"/><rect x="212.32" y="137.96" width="4.21" height="4.21" transform="translate(-36.24 192.64) rotate(-45)" style="fill:#231f20"/><rect x="278.39" y="137.87" width="4.21" height="4.21" transform="translate(-16.82 239.34) rotate(-45)" style="fill:#231f20"/><rect x="344.33" y="137.96" width="4.21" height="4.21" transform="translate(2.43 286) rotate(-45)" style="fill:#231f20"/><rect x="410.4" y="137.87" width="4.21" height="4.21" transform="translate(21.84 332.68) rotate(-45)" style="fill:#231f20"/><rect x="476.46" y="137.96" width="4.21" height="4.21" transform="translate(41.13 379.42) rotate(-45)" style="fill:#231f20"/><rect x="542.53" y="137.87" width="4.21" height="4.21" transform="translate(60.53 426.1) rotate(-45)" style="fill:#231f20"/><rect x="608.48" y="137.96" width="4.21" height="4.21" transform="translate(79.79 472.77) rotate(-45)" style="fill:#231f20"/><rect x="674.54" y="137.87" width="4.21" height="4.21" transform="translate(99.2 519.45) rotate(-45)" style="fill:#231f20"/><rect x="14.24" y="170.51" width="4.21" height="4.21" transform="translate(-117.27 62.12) rotate(-45)" style="fill:#231f20"/><rect x="80.19" y="170.6" width="4.21" height="4.21" transform="translate(-98.01 108.77) rotate(-45)" style="fill:#231f20"/><rect x="146.26" y="170.51" width="4.21" height="4.21" transform="translate(-78.6 155.46) rotate(-45)" style="fill:#231f20"/><rect x="212.32" y="170.6" width="4.21" height="4.21" transform="translate(-59.31 202.2) rotate(-45)" style="fill:#231f20"/><rect x="278.39" y="170.51" width="4.21" height="4.21" transform="translate(-39.9 248.9) rotate(-45)" style="fill:#231f20"/><rect x="344.33" y="170.6" width="4.21" height="4.21" transform="translate(-20.65 295.56) rotate(-45)" style="fill:#231f20"/><rect x="410.4" y="170.51" width="4.21" height="4.21" transform="translate(-1.24 342.25) rotate(-45)" style="fill:#231f20"/><rect x="476.46" y="170.6" width="4.21" height="4.21" transform="translate(18.05 388.98) rotate(-45)" style="fill:#231f20"/><rect x="542.53" y="170.51" width="4.21" height="4.21" transform="translate(37.46 435.67) rotate(-45)" style="fill:#231f20"/><rect x="608.48" y="170.6" width="4.21" height="4.21" transform="translate(56.71 482.32) rotate(-45)" style="fill:#231f20"/><rect x="674.54" y="170.51" width="4.21" height="4.21" transform="translate(76.12 529.01) rotate(-45)" style="fill:#231f20"/><rect x="47.19" y="203.23" width="4.21" height="4.21" transform="translate(-130.76 95) rotate(-45)" style="fill:#231f20"/><rect x="113.19" y="203.23" width="4.21" height="4.21" transform="translate(-111.43 141.67) rotate(-45)" style="fill:#231f20"/><rect x="179.32" y="203.23" width="4.21" height="4.21" transform="translate(-92.06 188.43) rotate(-45)" style="fill:#231f20"/><rect x="245.33" y="203.23" width="4.21" height="4.21" transform="translate(-72.73 235.11) rotate(-45)" style="fill:#231f20"/><rect x="311.33" y="203.23" width="4.21" height="4.21" transform="translate(-53.39 281.77) rotate(-45)" style="fill:#231f20"/><rect x="377.34" y="203.23" width="4.21" height="4.21" transform="translate(-34.06 328.45) rotate(-45)" style="fill:#231f20"/><rect x="443.46" y="203.23" width="4.21" height="4.21" transform="translate(-14.7 375.2) rotate(-45)" style="fill:#231f20"/><rect x="509.47" y="203.23" width="4.21" height="4.21" transform="translate(4.64 421.87) rotate(-45)" style="fill:#231f20"/><rect x="575.47" y="203.23" width="4.21" height="4.21" transform="translate(23.98 468.57) rotate(-45)" style="fill:#231f20"/><rect x="641.48" y="203.23" width="4.21" height="4.21" transform="translate(43.3 515.22) rotate(-45)" style="fill:#231f20"/><rect x="707.6" y="203.23" width="4.21" height="4.21" transform="translate(62.68 562) rotate(-45)" style="fill:#231f20"/><rect x="47.19" y="234.93" width="4.21" height="4.21" transform="translate(-153.17 104.28) rotate(-45)" style="fill:#231f20"/><rect x="113.19" y="234.93" width="4.21" height="4.21" transform="translate(-133.84 150.96) rotate(-45)" style="fill:#231f20"/><rect x="179.32" y="234.93" width="4.21" height="4.21" transform="translate(-114.47 197.71) rotate(-45)" style="fill:#231f20"/><rect x="245.33" y="234.93" width="4.21" height="4.21" transform="translate(-95.14 244.39) rotate(-45)" style="fill:#231f20"/><rect x="311.33" y="234.93" width="4.21" height="4.21" transform="translate(-75.81 291.05) rotate(-45)" style="fill:#231f20"/><rect x="377.34" y="234.93" width="4.21" height="4.21" transform="translate(-56.47 337.72) rotate(-45)" style="fill:#231f20"/><rect x="443.46" y="234.93" width="4.21" height="4.21" transform="translate(-37.11 384.48) rotate(-45)" style="fill:#231f20"/><rect x="509.47" y="234.93" width="4.21" height="4.21" transform="translate(-17.78 431.15) rotate(-45)" style="fill:#231f20"/><rect x="575.47" y="234.93" width="4.21" height="4.21" transform="translate(1.57 477.85) rotate(-45)" style="fill:#231f20"/><rect x="641.48" y="234.93" width="4.21" height="4.21" transform="translate(20.89 524.5) rotate(-45)" style="fill:#231f20"/><rect x="707.6" y="234.93" width="4.21" height="4.21" transform="translate(40.27 571.28) rotate(-45)" style="fill:#231f20"/><rect x="14.24" y="267.48" width="4.21" height="4.21" transform="translate(-185.84 90.52) rotate(-45)" style="fill:#231f20"/><rect x="80.19" y="267.57" width="4.21" height="4.21" transform="translate(-166.58 137.18) rotate(-45)" style="fill:#231f20"/><rect x="146.26" y="267.48" width="4.21" height="4.21" transform="translate(-147.17 183.87) rotate(-45)" style="fill:#231f20"/><rect x="212.32" y="267.57" width="4.21" height="4.21" transform="translate(-127.88 230.61) rotate(-45)" style="fill:#231f20"/><rect x="278.39" y="267.48" width="4.21" height="4.21" transform="translate(-108.47 277.3) rotate(-45)" style="fill:#231f20"/><rect x="344.33" y="267.57" width="4.21" height="4.21" transform="translate(-89.22 323.96) rotate(-45)" style="fill:#231f20"/><rect x="410.4" y="267.48" width="4.21" height="4.21" transform="translate(-69.81 370.65) rotate(-45)" style="fill:#231f20"/><rect x="476.46" y="267.57" width="4.21" height="4.21" transform="translate(-50.52 417.38) rotate(-45)" style="fill:#231f20"/><rect x="542.53" y="267.48" width="4.21" height="4.21" transform="translate(-31.11 464.07) rotate(-45)" style="fill:#231f20"/><rect x="608.48" y="267.57" width="4.21" height="4.21" transform="translate(-11.85 510.73) rotate(-45)" style="fill:#231f20"/><rect x="674.54" y="267.48" width="4.21" height="4.21" transform="translate(7.56 557.42) rotate(-45)" style="fill:#231f20"/><rect x="14.24" y="300.12" width="4.21" height="4.21" transform="translate(-208.92 100.08) rotate(-45)" style="fill:#231f20"/><rect x="80.19" y="300.21" width="4.21" height="4.21" transform="translate(-189.66 146.74) rotate(-45)" style="fill:#231f20"/><rect x="146.26" y="300.12" width="4.21" height="4.21" transform="translate(-170.25 193.42) rotate(-45)" style="fill:#231f20"/><rect x="212.32" y="300.21" width="4.21" height="4.21" transform="translate(-150.96 240.16) rotate(-45)" style="fill:#231f20"/><rect x="278.39" y="300.12" width="4.21" height="4.21" transform="translate(-131.55 286.86) rotate(-45)" style="fill:#231f20"/><rect x="344.33" y="300.21" width="4.21" height="4.21" transform="translate(-112.3 333.52) rotate(-45)" style="fill:#231f20"/><rect x="410.4" y="300.12" width="4.21" height="4.21" transform="translate(-92.89 380.21) rotate(-45)" style="fill:#231f20"/><rect x="476.46" y="300.21" width="4.21" height="4.21" transform="translate(-73.6 426.94) rotate(-45)" style="fill:#231f20"/><rect x="542.53" y="300.12" width="4.21" height="4.21" transform="translate(-54.19 473.63) rotate(-45)" style="fill:#231f20"/><rect x="608.48" y="300.21" width="4.21" height="4.21" transform="translate(-34.93 520.29) rotate(-45)" style="fill:#231f20"/><rect x="674.54" y="300.12" width="4.21" height="4.21" transform="translate(-15.52 566.97) rotate(-45)" style="fill:#231f20"/></svg>